<svg viewBox="0 0 1190.5 409.5" xmlns="http://www.w3.org/2000/svg"><g fill="#fff"><path d="m1190.5 115c0 63.51-51.49 115-115 115s-115-51.49-115-115 51.49-115 115-115 115 51.49 115 115zm-115-89.84c-49.62 0-89.84 40.22-89.84 89.84s40.22 89.84 89.84 89.84 89.84-40.22 89.84-89.84-40.22-89.84-89.84-89.84z"/><path d="m1017.5 364.5c0 24.85-20.15 45-45 45s-45-20.15-45-45 20.15-45 45-45 45 20.15 45 45zm-45-35.16c-19.42 0-35.16 15.74-35.16 35.16s15.74 35.16 35.16 35.16 35.16-15.74 35.16-35.16-15.74-35.16-35.16-35.16z"/><path d="m200 237c0 55.23-44.77 100-100 100s-100-44.77-100-100 44.77-100 100-100 100 44.77 100 100zm-100-78.12c-43.15 0-78.12 34.98-78.12 78.12s34.98 78.12 78.12 78.12 78.12-34.98 78.12-78.12-34.98-78.12-78.12-78.12z"/></g></svg>