<svg viewBox="0 0 342.47 348.68" xmlns="http://www.w3.org/2000/svg"><g fill="#fff"><path d="m342.47 75.37c0 41.63-33.74 75.37-75.37 75.37s-75.37-33.74-75.37-75.37 33.75-75.37 75.37-75.37 75.37 33.74 75.37 75.37zm-75.37-58.88c-32.52 0-58.88 26.36-58.88 58.88s26.36 58.88 58.88 58.88 58.88-26.36 58.88-58.88-26.36-58.88-58.88-58.88z"/><path d="m256.82 324.32c0 13.45-10.91 24.36-24.36 24.36s-24.36-10.91-24.36-24.36 10.91-24.36 24.36-24.36 24.36 10.91 24.36 24.36zm-24.36-19.03c-10.51 0-19.03 8.52-19.03 19.03s8.52 19.03 19.03 19.03 19.03-8.52 19.03-19.03-8.52-19.03-19.03-19.03z"/><path d="m108.27 208.3c0 29.9-24.24 54.13-54.13 54.13s-54.14-24.23-54.14-54.13 24.24-54.13 54.13-54.13 54.13 24.24 54.13 54.13zm-54.13-42.29c-23.36 0-42.29 18.94-42.29 42.29s18.94 42.29 42.29 42.29 42.29-18.94 42.29-42.29-18.94-42.29-42.29-42.29z"/></g></svg>