<svg viewBox="0 0 350 177.31" xmlns="http://www.w3.org/2000/svg"><g fill="#004097"><path d="m109.96 83.62c.09.75.09 1.49.09 2.33 0 2.24-.28 4.76-.93 7.51-1.17 4.81-5.27 8.63-11.11 8.63-4.67 0-5.97-1.49-5.97-3.03 0-1.17.84-2.29 2.19-2.29.28 0 .56.05.89.14 1.07.33 2.05.47 2.99.47 3.08 0 5.41-1.73 6.39-5.13.61-2.15.89-4.25.89-6.21 0-.84-.05-1.63-.14-2.38l-19.64.19h-.05c-1.4 0-2.1-1.07-2.1-2.15s.7-2.19 2.15-2.19l18.52-.09c-.89-2.1-2.29-3.78-4.01-4.76-.65-.37-.93-.84-.93-1.35 0-1.03 1.12-2.01 2.47-2.01.37 0 .84.09 1.26.28.65.33 1.31.75 1.96 1.26 1.03-.75 5.69-4.48 5.69-5.09 0-.19-.23-.28-.79-.28-1.21-.05-2.61-.05-4.06-.05-4.06 0-8.82.09-12.83.23h-.09c-1.4 0-2.15-1.03-2.15-2.05s.7-2.05 2.19-2.1c2.89-.09 6.49-.14 9.99-.14s6.95.05 9.57.09c2.85.05 4.15 1.59 4.15 3.27 0 .93-.37 1.91-1.12 2.71-1.4 1.54-5.55 5.04-7.79 6.58.61.98 1.07 2.1 1.49 3.36l12.83-.14h.05c1.31 0 1.91 1.07 1.91 2.15s-.65 2.19-1.96 2.19l-11.99.05z"/><path d="m143.22 69.95c-2.43-2.99 2.15-5.51 4.01-2.85 2.01 2.85 4.11 7 5.46 10.87 2.52-1.77 5.18-3.45 8.21-5.13 3.17-1.77 5.6 2.71 2.01 4.53-4.76 2.43-9.57 5.13-13.25 8.26-4.62 3.92-4.76 7.42-1.12 9.19 3.27 1.63 9.94.42 12.74-.61 3.92-1.49 5.32 3.87 1.17 5.04-3.69 1.03-11.48 1.96-16.1-.37-6.72-3.41-6.44-10.96 1.12-16.98.47-.37.89-.75 1.35-1.07-1.21-3.69-3.45-8.26-5.6-10.87zm23.24 2.05c-.51-.79-2.57-2.71-3.45-3.22-2.24-1.26-.09-3.83 1.96-2.75 1.17.61 3.36 2.15 4.25 3.36 1.59 2.15-1.45 4.62-2.75 2.61zm4.76-3.59c-.56-.79-2.66-2.57-3.55-3.03-2.29-1.21-.23-3.83 1.87-2.85 1.21.56 3.41 2.05 4.34 3.22 1.63 2.1-1.31 4.62-2.66 2.66z"/><path d="m199.35 92.44c.28 6.67 7.56 6.39 9.99 1.21 1.63-3.5.33-6.58-2.29-9.43-2.43-2.66 1.59-5.13 3.64-2.75 3.64 4.2 4.95 8.63 3.17 13.35-3.36 8.86-18.24 10.41-18.62-2.05-.05-1.31-.05-2.71.05-4.15-1.68-.14-2.99-.42-3.59-.56-3.78-1.03-2.33-5.46.33-4.57 1.07.33 2.29.61 3.59.7.19-2.05.42-4.11.65-6.21-1.77-.23-3.27-.56-3.87-.79-3.55-1.21-1.49-5.51.98-4.48 1.03.42 2.19.75 3.36.89.05-.56.14-1.17.19-1.73.28-2.94.37-4.71.51-6.91.23-3.27 4.67-2.52 4.67.23 0 2.19-.47 3.97-.79 6.72-.05.56-.14 1.12-.19 1.68.42-.05.79-.14 1.17-.23 3.03-.7 3.83 3.45 1.07 4.25-.93.28-1.87.37-2.85.47-.28 2.1-.51 4.11-.7 6.07.79-.09 1.54-.23 2.24-.42 3.08-.84 4.25 3.27 1.49 4.2-1.26.42-2.71.65-4.15.75-.09 1.35-.09 2.61-.05 3.78z"/><path d="m237.14 98.32c-3.73-9.19-.05-23 .79-28.56.51-3.45 5.04-2.43 4.53.28-.75 3.78-3.55 14.74-2.43 19.08.14.61.33.47.51.05.09-.23.61-1.17.79-1.49 1.45-2.29 4.34-.05 3.27 1.82-1.73 3.03-2.47 5.18-2.75 6.53-.28 1.26.28 2.71-.89 3.73-1.17 1.03-2.89.84-3.83-1.45zm12.51-3.31c-1.91-2.1.89-5.41 3.31-3.22 2.52 2.29 8.12 1.54 11.76.79 3.78-.79 4.01 4.15.93 4.95-4.99 1.26-12.65 1.12-16.01-2.52zm2.66-18.62c-2.57.65-4.06-3.5-.65-4.34 4.15-1.03 9.01-1.07 12.27-.28 3.27.79 2.38 5.18-.79 4.48-3.36-.7-6.91-.84-10.83.14z"/><path d="m17.34 161.3c2.38 4.34 4.62 8.63 5.51 11.34.7 2.1-.19 3.59-1.4 4.01s-2.8-.23-3.31-2.29c-.7-2.8-2.71-7.05-4.95-11.29-1.12-2.15-2.29-4.29-3.36-6.25-2.15 1.21-4.34 2.24-6.63 2.94-2.94.89-4.9-3.45-1.12-4.57 1.91-.56 3.73-1.35 5.6-2.29-.23-.47-.42-.89-.65-1.31-.42-.79-.84-1.68-1.26-2.57s-.75-1.73-.98-2.57c-.7-2.75 3.17-4.29 4.39-1.31.61 1.54 1.07 3.08 1.82 4.57.19.33.37.7.56 1.07 3.08-1.73 6.11-3.59 9.29-4.81 4.62-1.77 9.24-2.38 12.83-.14 3.97 2.52 4.11 7.05 1.49 10.78-3.73 5.27-11.99 6.25-16.98 3.31-1.26-.75-1.31-2.24-.65-3.27.65-1.03 2.01-1.59 3.45-.61 2.75 1.91 7.93 1.26 10.22-1.87 1.21-1.63 1.17-3.59-.47-4.81-1.73-1.26-4.71-.98-8.59.56-3.03 1.21-5.79 2.94-8.54 4.62 1.17 2.1 2.47 4.43 3.73 6.72zm-1.12-16.24c-.19-.75-.61-1.35-1.03-1.87-.37-.47-.75-.89-1.17-1.31-1.54-1.59 1.59-4.01 3.92-2.1.79.65 2.24 2.1 2.75 3.83.84 2.85-3.64 4.43-4.48 1.45z"/><path d="m73.24 168.91c3.41-3.03 3.27-7.47.61-9.24-2.43-1.63-7.47-1.96-12.18.79-1.87 1.07-2.85 1.91-3.92 3.5-1.68 2.47-6.35-.28-3.45-3.13 5.13-5.09 8.91-8.68 14.09-15.07.51-.65.05-.47-.33-.28-1.31.7-4.39 1.63-7.84 2.38-3.69.79-4.39-3.83-1.21-4.2 3.13-.37 7.61-1.49 10.27-2.29 3.73-1.07 6.81 2.24 4.48 4.85-1.49 1.68-3.36 3.5-5.23 5.23s-3.73 3.41-5.41 5.04c4.11-2.19 9.66-2.19 13.11-.14 6.72 4.01 4.53 12.22-.37 15.77-4.62 3.31-11.9 3.5-15.44 1.17-4.95-3.22-2.75-9 2.75-9.19 3.73-.14 7.23 2.1 7.37 6.3.89-.19 1.87-.75 2.71-1.49zm-9.94-1.4c-2.05.19-2.15 2.1-.65 2.89 1.07.56 2.61.75 3.92.7.05-2.15-1.21-3.78-3.27-3.59z"/><path d="m99.13 176.51c-1.31 0-2.15-1.07-2.15-2.15 0-.75.42-1.49 1.4-1.91 3.69-1.59 6.81-3.64 9.57-6.3-1.45-.84-2.94-1.59-4.29-2.24-.84-.42-1.21-1.07-1.21-1.77 0-1.03.89-2.1 2.1-2.1.98 0 4.53 1.96 6.25 2.99 1.31-1.59 2.52-3.36 3.73-5.32.47-.75 1.12-1.07 1.82-1.07 1.17 0 2.33.98 2.33 2.24 0 .37-.09 1.45-4.29 6.39 4.99 3.36 5.37 4.76 5.37 5.55 0 1.35-1.12 2.52-2.33 2.52-.56 0-1.17-.28-1.68-.89-1.17-1.4-2.66-2.75-4.29-3.97-6.3 6.3-11.53 8.03-12.32 8.03zm7.7-32.71c-4.34 6.72-5.88 6.95-6.63 6.95-1.21 0-2.29-.89-2.29-1.96 0-.51.23-1.03.79-1.54 3.36-2.94 5.46-7.19 7.05-10.73.37-.79 1.07-1.12 1.82-1.12 1.21 0 2.47.89 2.47 2.1 0 .33-.05.79-.93 2.38l20.72-.05c1.35 0 2.05.98 2.05 1.96s-.7 2.01-2.1 2.01h-22.96zm-5.55 11.67c-1.21 0-1.87-.93-1.87-1.87s.65-1.87 1.87-1.87h22.3c2.57.05 5.09 1.63 5.09 4.48 0 1.17-.09 2.85-.09 4.76 0 8.07 2.66 10.31 3.08 10.31.56 0 1.07-1.07 1.4-3.69.14-1.17 1.03-1.68 1.91-1.68 1.12 0 2.29.75 2.29 2.15 0 2.57-1.87 8.12-5.69 8.12-.98 0-7.42-.33-7.42-18.1 0-1.26 0-2.61-2.05-2.61h-20.81zm5.97-6.07c-1.21 0-1.82-.84-1.82-1.68 0-.89.61-1.73 1.82-1.73h18.71c1.21 0 1.77.84 1.77 1.68 0 .89-.56 1.73-1.77 1.73z"/><path d="m155.12 144.6c-2.43-2.99 2.15-5.51 4.01-2.85 2.01 2.85 4.11 7 5.46 10.87 2.52-1.77 5.18-3.45 8.21-5.13 3.17-1.77 5.6 2.71 2.01 4.53-4.76 2.43-9.57 5.13-13.25 8.26-4.62 3.92-4.76 7.42-1.12 9.19 3.27 1.63 9.94.42 12.74-.61 3.92-1.49 5.32 3.87 1.17 5.04-3.69 1.03-11.48 1.96-16.1-.37-6.72-3.41-6.44-10.96 1.12-16.98.47-.37.89-.75 1.35-1.07-1.21-3.69-3.45-8.26-5.6-10.87z"/><path d="m222.03 141.94c3.27.19 5.6 2.24 5.69 5.32.09 2.99.14 7.7.14 12.23 0 3.87-.05 7.65-.09 9.99-.14 4.34-2.61 6.16-7.14 6.35-1.82.09-4.11.14-6.39.14-11.15 0-14.93-.09-15.12-6.39-.09-2.8-.14-6.77-.14-10.78s.05-8.16.14-11.24c.23-5.65 4.48-5.69 9.43-5.69.56-1.73 1.03-3.73 1.21-4.95.14-1.03 1.21-1.49 2.33-1.49 1.31 0 2.75.7 2.75 2.05 0 .79-.61 2.38-1.45 4.34 3.36 0 6.81 0 8.63.14zm1.49 13.76h-20.3v5.65h20.3zm-.05-3.97c0-1.07-.05-2.05-.09-2.85-.14-3.17-1.17-3.17-9.75-3.17-2.75 0-5.41.05-6.91.14-3.31.19-3.45 1.54-3.45 5.88zm-20.2 13.58c0 1.26.05 2.43.09 3.31.09 3.08 1.21 3.17 10.36 3.17 2.29 0 4.62-.05 6.16-.14 3.59-.19 3.59-2.01 3.59-6.35h-20.2z"/><path d="m247.36 175.12.47-21.88c-3.13 4.06-4.39 4.9-5.51 4.9-1.21 0-2.19-.93-2.19-2.05 0-.51.23-1.12.79-1.63 4.43-4.25 8.49-10.41 10.64-16.89.37-1.03 1.17-1.49 2.01-1.49 1.26 0 2.61.98 2.61 2.29 0 .89-1.87 4.76-3.78 8.03l-.56 28.74c0 1.4-1.17 2.1-2.24 2.1s-2.24-.7-2.24-2.05v-.05zm8.91-26.97c-1.4 0-2.1-.98-2.1-1.96s.7-1.96 2.1-1.96h24.12c1.4 0 2.05.98 2.05 1.96s-.65 1.96-2.05 1.96zm18.8 28.09c-2.38.09-4.81.09-7.09.09s-4.57 0-6.72-.09c-2.24-.09-3.64-1.63-3.69-3.69-.05-1.03-.05-1.91-.05-2.8 0-1.17 0-2.29.05-3.45.05-1.77 1.35-3.45 3.78-3.55 1.91-.09 3.87-.09 5.83-.09 2.71 0 5.41.05 7.98.09 2.01.05 3.97 1.07 4.06 3.31.05 1.07.05 2.15.05 3.27s0 2.15-.05 3.17c-.05 2.1-1.68 3.64-4.15 3.73zm-14.93-34.48c-1.35 0-2.05-.93-2.05-1.91s.7-1.91 2.05-1.91h16.05c1.35 0 2.01.93 2.01 1.91s-.65 1.91-2.01 1.91zm.14 18.48c-1.4 0-2.1-.98-2.1-1.91 0-.98.7-1.91 2.1-1.91h15.96c1.35 0 2.01.93 2.01 1.91s-.65 1.91-2.01 1.91zm0-6.02c-1.35 0-2.05-.98-2.05-1.91 0-.98.7-1.91 2.05-1.91h15.96c1.35 0 2.01.93 2.01 1.91s-.65 1.91-2.01 1.91zm14.46 15.26c0-.61 0-1.26-.05-1.91-.05-1.4-.42-1.4-6.63-1.4-1.68 0-3.31.05-4.71.09-1.45.05-1.49.7-1.49 3.08 0 2.66.09 3.13 1.49 3.22 1.59.05 3.17.09 4.85.09s3.36-.05 5.09-.09c1.31-.09 1.45-.56 1.45-3.08z"/><path d="m311.88 142.31c.75-.28 1.45-.56 1.96-.84 2.57-1.54 5.09 2.33 1.63 4.06-1.17.56-3.17 1.12-5.13 1.54-.61 1.49-1.4 3.17-2.24 4.71 3.22-.56 6.3.61 7.84 4.06 1.91-.98 3.87-1.96 5.69-2.75 1.12-.47 2.38-1.03 3.64-1.73 3.5-1.96 5.6 2.71 2.61 4.2-1.49.75-2.57.98-5.04 1.91-1.96.75-4.06 1.68-5.93 2.57.14 1.54.19 3.45.09 5.13-.09 1.87-1.31 2.85-2.47 2.89-1.17.05-2.24-.84-2.1-2.66.05-.98.09-2.05.09-3.03-.42.23-.84.47-1.21.7-5.79 3.73-5.09 6.53-2.47 7.84 2.47 1.26 7.05.33 9.24-.37 4.11-1.26 5.41 3.78 1.12 4.9-2.75.7-9.1 1.4-12.74-.65-6.3-3.55-5.18-9.84 3.27-15.4.65-.42 1.4-.93 2.29-1.45-1.26-3.92-4.85-3.45-7.89.05l-.19.19c-.42.51-.75.93-1.07 1.21-2.57 2.29-5.97-.37-3.17-2.89 1.21-1.12 2.8-2.8 3.78-4.39.79-1.31 1.54-2.71 2.19-4.15-2.52.37-4.29.23-5.79-.51-3.36-1.68-1.07-6.07 2.19-3.87.89.61 2.75.37 4.39.09.19-.05.47-.05.7-.09.33-1.35.42-2.29.51-3.92.19-2.8 4.57-2.52 4.67-.23.05.93-.14 1.82-.37 2.71l-.09.19z"/><path d="m344.68 177.31c-2.94 0-5.32-2.38-5.32-5.32s2.38-5.32 5.32-5.32 5.32 2.38 5.32 5.32-2.38 5.32-5.32 5.32zm0-8.82c-1.96 0-3.55 1.54-3.55 3.5s1.59 3.55 3.55 3.55 3.55-1.59 3.55-3.55-1.59-3.5-3.55-3.5z"/><path d="m21.93 35.95c-.83-2.29-1.19-4.25-1.84-6.63-.4-1.46-.94-3.67-1.42-5.03-.57-1.62 1.97-2.29 2.39-.82.4 1.41.92 3.56 1.29 5.07.6 2.39.91 4.51 1.69 6.63 1.17 3.18 5.03 1.7 7.9-2.57 1.07-1.59 3.08.01 2.14 1.43-3.18 4.9-10.05 7.81-12.16 1.91z"/><path d="m50.32 32.57c-1.72.72-2.41-1.41-.9-2.01 1.99-.78 3.4-1.76 4.3-3.02 1.07-1.52.85-2.78-.01-3.39-1.23-.88-3.01-.43-4.38.34-1.51.88-2.77 2.13-4.14 3.2-1.39 1.09-2.77-.8-1.44-1.76 1.31-.93 3.06-2.3 4.74-3.17 1.79-.92 4.38-1.56 6.35-.28 2.36 1.52 2.19 4.21.54 6.41-1.09 1.45-2.68 2.69-5.05 3.68z"/><path d="m72.14 15.11c1.89-.5 3.55.37 4.09 2.91.33 1.59.46 3.69.12 5.24-.54 2.43-2.59 3.94-4.89 3.69-1.9-.21-1.54-2.44-.08-2.34 1.36.09 2.28-.28 2.69-1.74.33-1.21.25-2.87.04-4.09-.24-1.39-.84-1.97-1.88-1.7-.34.08-.67.19-1.03.3-.5 3.74-1.49 7.12-2.83 9.97-.83 1.75-3.44.84-2.24-1.09 1.27-2.04 2.23-4.89 2.75-8.14l-.27.09c-.95.36-1.82.65-2.41.75-1.56.27-1.89-1.79-.45-2.18.7-.19 1.41-.29 2.22-.51l1.12-.31c.1-1.06.16-2.46.07-3.76-.1-1.52 2.26-1.79 2.34-.22.04.79-.01 2.22-.1 3.34l.74-.2zm9.32 3.67c-.77-1.16-2.1-2.72-3.96-3.36-1.23-.42-.52-2.31 1.04-1.74 2.02.75 3.93 2.09 4.83 3.63.84 1.41-1.05 2.78-1.91 1.47z"/><path d="m96.73 23.11c3.28-2.78 4.67-8.01 2.48-12.62-1.05-2.21-3.13-1.08-3.62.43-.49 1.49-.42 2.44-.05 4.43.4 2.22-2.09 2.51-2.44.87-.37-1.8-.26-4.06-.14-5.39.1-1.21.35-2.78.36-4.21 0-1.47 2.27-1.48 2.33-.08.03.79-.14 1.63-.33 2.22-.22.66-.03.33.16 0 1.41-2.38 4.52-1.81 5.79.67 2.27 4.44 2.21 10.6-2.7 15.27-1.69 1.62-3.61-.08-1.84-1.59z"/><path d="m125.21 16.16c.07.32.13.67.15 1.01.17 2.08-.53 5.31-4.56 5.65-1.8.15-2.82-.25-2.89-1.16-.05-.58.35-1.12 1-1.18.12 0 .23-.02.37.02.52.12 1.06.17 1.55.13 2.59-.22 2.33-3.32 2.32-3.5-.02-.28-.07-.53-.14-.78l-9.81.87c-.72.06-1.11-.42-1.15-.93-.04-.53.28-1.1.95-1.15l8.57-.67c-.29-.16-.61-.32-.97-.41-.5-.12-.73-.41-.76-.71-.04-.49.45-1.02 1.15-1.07.51-.04 1.02.17 1.4.35.57-.44 1.72-1.4 1.7-1.68 0-.09-.1-.13-.27-.12-.26 0-.7.03-1.23.08-1.48.12-3.72.36-5.34.57t-.05 0c-.69.06-1.08-.4-1.12-.88-.04-.46.27-.98.98-1.06.99-.13 2.24-.23 3.47-.34 1.69-.14 3.38-.26 4.45-.33 1.32-.09 1.93.54 1.99 1.25.09 1.13-1.05 2.19-3.03 3.66.13.15.26.3.36.46l6.89-.65c.67-.06 1.06.45 1.11.98.04.51-.24 1.05-.91 1.1l-6.2.5zm3.2-7.73c-.08-.97-.6-1.09-1.55-1.03-1.85.13-3.94.28-5.95.45-1.64.14-3.26.3-4.69.44-1.27.13-1.45.47-1.45 1.29l.11 1.34v.02c.06.65-.49 1.07-1.09 1.12-.53.04-1.12-.23-1.2-.95-.02-.3-.08-.65-.11-1.02-.03-.39-.04-.79-.07-1.13-.05-1.09.72-2.28 2.52-2.45l1.94-.19c-.12-.06-.22-.17-.33-.3-.55-.77-1.09-1.03-1.76-1.53-.22-.17-.33-.37-.35-.58-.04-.51.49-1.04 1.1-1.09.88-.07 2.83 1.53 2.9 2.34.04.42-.23.83-.59 1.07 2.03-.19 4.05-.36 6.08-.53.61-.82 1.1-2.21 1.39-3.19.16-.55.56-.79.98-.83.65-.05 1.36.38 1.41 1.02.04.44-.61 1.64-1.46 2.83.53-.04 1.09-.07 1.62-.11 1.37-.09 2.7.54 2.87 1.97.05.32.09.81.13 1.25.03.32.05.62.05.86 0 .68-.56 1.07-1.14 1.12-.6.05-1.18-.23-1.24-.88t0-.05l-.11-1.27zm-6.81-2.62c-.32.03-.64-.11-.83-.49-.4-.83-.95-1.3-1.53-1.88-.15-.15-.24-.33-.25-.49-.04-.49.5-.95 1.1-1 1.18-.1 2.64 2.06 2.69 2.59.05.62-.57 1.21-1.18 1.26z"/><path d="m139.25 15.17c-.4-4.17 1.71-7.33 2.52-8.95.09-.14.19-.33.01-.28-.34.11-.92.2-1.73.29-1.83.18-1.83-2.36 0-2.39 1.88-.04 3.4-.46 4.37-1.08 1.45-.93 2.75 1.2 1.12 2.11-1.59.89-4.88 5.66-4.16 10.21.55 3.48 3.72 3.64 6.03 1.28 2.82-2.87 2.49-8.18 1.77-9.63-.15-.29-.41-.84-.66-1.23-1.03-1.6 1.26-2.92 2.32-1.06.96 1.7 2.18 2.92 4.7 4.16 1.64.81.35 3.12-1.29 2.2-1.03-.58-2-1.49-2.61-2.2-.15-.18-.22-.22-.14 0 .63 2.09.27 6.5-2.56 9.58-3.14 3.42-9.1 3.3-9.69-3zm12.44-11.49c-1.2-.43-.34-1.87.74-1.52.64.2 1.82.75 2.36 1.29.95.93-.35 2.41-1.16 1.54-.32-.36-1.47-1.12-1.94-1.31zm2-2.09c-1.2-.41-.41-1.84.7-1.54.64.18 1.85.71 2.4 1.22.97.89-.28 2.41-1.11 1.56-.34-.33-1.51-1.07-1.99-1.23z"/><path d="m164.19 20c-.59-.85-1.88-1.91-2.88-2.41-.44-.23-.63-.57-.64-.92 0-.53.41-1.03 1.08-1.03.81 0 4.55 2 4.56 3.58 0 .74-.61 1.28-1.24 1.29-.32 0-.65-.16-.89-.5z"/><path d="m197.05 6.97c-.44 2.94-2.64 7.27-4.92 9.29-1.83 1.6-3.76.65-4.73-1.37-1.39-2.91.27-7.19 3.44-9.28 2.9-1.9 7.16-2.12 10.04-.29 3.54 2.25 4.02 6.53 1.92 9.8-1.14 1.76-3.45 3.14-5.76 3.69-2.06.48-2.72-1.88-.71-2.29 1.77-.35 3.59-1.3 4.38-2.49 1.71-2.56 1.16-5.61-1.1-7.13-.89-.6-1.86-.91-2.86-1 .25.24.38.61.3 1.08zm-5.16.31c-2.2 1.62-3.44 4.68-2.51 6.49.33.68.93 1.05 1.52.55 1.78-1.49 3.5-5.14 3.79-7.64.03-.28.11-.53.23-.71-1.07.21-2.13.67-3.03 1.32z"/><path d="m212.42 14.9c.05-4.18 2.48-7.11 3.46-8.63.1-.13.23-.31.04-.28-.35.07-.94.11-1.75.1-1.84-.02-1.57-2.54.26-2.38 1.87.16 3.42-.09 4.46-.61 1.54-.77 2.61 1.49.89 2.22-1.67.71-5.45 5.11-5.22 9.71.18 3.52 3.31 4.02 5.86 1.92 3.11-2.55 3.34-7.87 2.79-9.39-.12-.31-.32-.88-.53-1.29-.85-1.7 1.57-2.77 2.42-.8.77 1.79 1.86 3.14 4.23 4.63 1.55.98.02 3.14-1.52 2.05-.96-.69-1.83-1.69-2.36-2.47-.13-.19-.19-.24-.14 0 .4 2.14-.42 6.49-3.57 9.25-3.49 3.07-9.4 2.31-9.32-4.01zm13.6-10.1c-1.15-.56-.14-1.89.9-1.43.61.27 1.73.94 2.21 1.53.84 1.03-.61 2.36-1.32 1.41-.28-.39-1.34-1.27-1.79-1.51zm2.21-1.87c-1.15-.54-.21-1.87.86-1.46.61.25 1.76.9 2.26 1.46.87.98-.54 2.36-1.27 1.43-.3-.37-1.39-1.23-1.84-1.44z"/><path d="m246.29 10.1c-.66 2.9-3.18 7.05-5.61 8.89-1.94 1.46-3.79.37-4.61-1.72-1.17-3.01.81-7.15 4.12-8.99 3.04-1.68 7.3-1.58 10.03.47 3.37 2.51 3.52 6.82 1.17 9.92-1.26 1.67-3.67 2.88-6.02 3.25-2.09.33-2.57-2.08-.54-2.34 1.8-.22 3.67-1.03 4.56-2.16 1.9-2.42 1.58-5.51-.56-7.2-.84-.67-1.79-1.04-2.77-1.21.23.26.33.64.22 1.1zm-5.17-.08c-2.32 1.45-3.78 4.41-2.99 6.28.28.7.85 1.11 1.47.66 1.89-1.35 3.87-4.86 4.35-7.34.05-.28.15-.52.28-.7-1.09.12-2.17.51-3.12 1.09z"/><path d="m261.02 19.21c.39-4.17 3.06-6.88 4.16-8.31.11-.12.25-.29.06-.27-.36.04-.94.03-1.75-.04-1.83-.17-1.35-2.66.46-2.35 1.86.32 3.42.19 4.49-.24 1.59-.64 2.48 1.7.7 2.28-1.73.57-5.86 4.64-6.01 9.24-.11 3.53 2.97 4.28 5.68 2.39 3.31-2.29 3.98-7.56 3.55-9.13-.09-.32-.24-.9-.42-1.33-.71-1.77 1.79-2.63 2.48-.6.62 1.85 1.59 3.28 3.83 4.97 1.46 1.1-.24 3.13-1.68 1.91-.9-.76-1.68-1.84-2.15-2.66-.11-.2-.17-.26-.14-.02.23 2.17-.96 6.43-4.32 8.92-3.73 2.77-9.56 1.53-8.95-4.77zm14.39-8.94c-1.1-.65.02-1.9 1.02-1.35.59.32 1.65 1.08 2.07 1.71.76 1.09-.8 2.3-1.43 1.29-.25-.41-1.23-1.37-1.66-1.65zm2.35-1.68c-1.11-.63-.06-1.88.97-1.38.59.3 1.68 1.04 2.13 1.65.79 1.05-.73 2.31-1.39 1.32-.27-.39-1.28-1.34-1.72-1.59z"/><path d="m298.7 15.37c1.28.84 3.44 2.86 3.2 4.04-.12.62-.7 1.02-1.27.91-.3-.06-.61-.29-.81-.7-.22-.45-.47-.85-.77-1.24-5.96-.16-11.8-1.01-12.46-1.14-.75-.15-1.03-.75-.93-1.27.09-.48.5-.87 1.16-.74.93.18 1.92.36 2.88.5.35-.45.82-1.26 1.18-1.9l-4.81-.93c-.68-.13-.95-.71-.85-1.21s.56-.93 1.25-.8l7.12 1.46.28-1.39c.14-.71.8-.95 1.4-.84.59.12 1.11.6.97 1.3l-.28 1.39 7.25 1.39c.71.14.95.71.85 1.21s-.54.93-1.25.8l-4.12-.84zm-.71 13.16s0 .02 0 .04c-.27 1.34-1.38 2.9-4.36 2.31-1.55-.31-2.38-.66-2.17-1.68.1-.5.49-.94 1.09-.83.05 0 .11.02.18.06.46.19.93.35 1.36.43.87.17 1.56 0 1.82-1.08.04-.18.1-.38.14-.61l-7.81-1.55-.63 3.19c-.13.66-.77.91-1.32.8-.52-.1-.96-.52-.83-1.21.04-.23 1.73-8.16 1.83-8.54.22-.88 1.09-1.77 2.92-1.46 1.07.19 2.42.43 3.74.69 1.09.22 2.16.45 3.09.66 1.81.43 2.28 1.4 2.12 2.43-.16 1.06-.58 3.03-.74 3.95l-.42 2.38zm-1.37-4.2-7.81-1.55c-.08.41-.19.84-.28 1.27l7.84 1.55.25-1.28zm.33-1.92c.15-.89-.21-.99-3.51-1.64-3.71-.74-3.99-.79-4.21.11l-.07.34 7.75 1.54zm-3.65-8.13c-.25.42-.83 1.19-1.3 1.78 1.85.25 3.65.44 5.4.6-.08-.06-.14-.12-.2-.18-.29-.22-.37-.5-.33-.73.05-.27.27-.54.58-.64l-4.15-.82z"/><path d="m313.78 33.75c-2.18-.22-1.68-2.73.19-2.5 2.93.37 5.33.12 7.3-.87 2.36-1.17 2.98-2.98 2.27-4.44-1-2.02-3.55-2.65-5.73-2.59-1.26.05-2.42.24-3.56.47s-2.29.47-3.53.7c-2.04.35-2.37-2.29-.5-2.54 2.17-.29 5.14-.79 7.72-.75 2.73.03 6.14.96 7.63 3.67 1.75 3.18 0 6.15-3.38 7.7-2.22 1.02-4.94 1.47-8.41 1.15z"/><path d="m330.05 40.38c-1.37-.5-2.08-2.02-1.57-3.4.5-1.37 2.02-2.08 3.4-1.57s2.08 2.02 1.57 3.4-2.02 2.08-3.4 1.57zm1.51-4.12c-.91-.34-1.92.11-2.26 1.03-.34.91.13 1.93 1.05 2.26.92.34 1.93-.13 2.26-1.05.34-.91-.14-1.91-1.06-2.24z"/></g></svg>