<svg viewBox="0 0 355.47 3568.68" xmlns="http://www.w3.org/2000/svg"><g fill="#f37c41" opacity=".15"><path d="m342.47 75.37c0 41.63-33.74 75.37-75.37 75.37s-75.37-33.74-75.37-75.37 33.75-75.37 75.37-75.37 75.37 33.74 75.37 75.37zm-75.37-58.88c-32.52 0-58.88 26.36-58.88 58.88s26.36 58.88 58.88 58.88 58.88-26.36 58.88-58.88-26.36-58.88-58.88-58.88z"/><path d="m256.82 324.32c0 13.45-10.91 24.36-24.36 24.36s-24.36-10.91-24.36-24.36 10.91-24.36 24.36-24.36 24.36 10.91 24.36 24.36zm-24.36-19.03c-10.51 0-19.03 8.52-19.03 19.03s8.52 19.03 19.03 19.03 19.03-8.52 19.03-19.03-8.52-19.03-19.03-19.03z"/><path d="m108.27 208.3c0 29.9-24.24 54.13-54.13 54.13s-54.14-24.23-54.14-54.13 24.24-54.13 54.13-54.13 54.13 24.24 54.13 54.13zm-54.13-42.29c-23.36 0-42.29 18.94-42.29 42.29s18.94 42.29 42.29 42.29 42.29-18.94 42.29-42.29-18.94-42.29-42.29-42.29z"/><path d="m342.47 1021.37c0 41.63-33.74 75.37-75.37 75.37s-75.37-33.74-75.37-75.37 33.74-75.37 75.37-75.37 75.37 33.74 75.37 75.37zm-75.37-58.88c-32.52 0-58.88 26.36-58.88 58.88s26.36 58.88 58.88 58.88 58.88-26.36 58.88-58.88-26.36-58.88-58.88-58.88z"/><path d="m256.82 1270.32c0 13.45-10.91 24.36-24.36 24.36s-24.36-10.91-24.36-24.36 10.91-24.36 24.36-24.36 24.36 10.91 24.36 24.36zm-24.36-19.03c-10.51 0-19.03 8.52-19.03 19.03s8.52 19.03 19.03 19.03 19.03-8.52 19.03-19.03-8.52-19.03-19.03-19.03z"/><path d="m108.27 1154.3c0 29.9-24.24 54.13-54.13 54.13s-54.14-24.23-54.14-54.13 24.24-54.13 54.13-54.13 54.13 24.24 54.13 54.13zm-54.13-42.29c-23.36 0-42.29 18.94-42.29 42.29s18.94 42.29 42.29 42.29 42.29-18.94 42.29-42.29-18.94-42.29-42.29-42.29z"/><path d="m342.47 2119.37c0 41.63-33.74 75.37-75.37 75.37s-75.37-33.74-75.37-75.37 33.74-75.37 75.37-75.37 75.37 33.74 75.37 75.37zm-75.37-58.88c-32.52 0-58.88 26.36-58.88 58.88s26.36 58.88 58.88 58.88 58.88-26.36 58.88-58.88-26.36-58.88-58.88-58.88z"/><path d="m256.82 2368.32c0 13.45-10.91 24.36-24.36 24.36s-24.36-10.91-24.36-24.36 10.91-24.36 24.36-24.36 24.36 10.91 24.36 24.36zm-24.36-19.03c-10.51 0-19.03 8.52-19.03 19.03s8.52 19.03 19.03 19.03 19.03-8.52 19.03-19.03-8.52-19.03-19.03-19.03z"/><path d="m108.27 2252.3c0 29.9-24.24 54.13-54.13 54.13s-54.13-24.24-54.13-54.13 24.24-54.13 54.13-54.13 54.13 24.24 54.13 54.13zm-54.13-42.29c-23.36 0-42.29 18.94-42.29 42.29s18.94 42.29 42.29 42.29 42.29-18.94 42.29-42.29-18.94-42.29-42.29-42.29z"/><path d="m88.37 2687c41.63 0 75.37 33.74 75.37 75.37s-33.74 75.37-75.37 75.37-75.37-33.74-75.37-75.37 33.74-75.37 75.37-75.37zm-58.88 75.37c0 32.52 26.36 58.88 58.88 58.88s58.88-26.36 58.88-58.88-26.36-58.88-58.88-58.88-58.88 26.36-58.88 58.88z"/><path d="m123.01 2986.96c13.45 0 24.36 10.91 24.36 24.36s-10.91 24.36-24.36 24.36-24.36-10.91-24.36-24.36 10.91-24.36 24.36-24.36zm-19.03 24.36c0 10.51 8.52 19.03 19.03 19.03s19.03-8.52 19.03-19.03-8.52-19.03-19.03-19.03-19.03 8.52-19.03 19.03z"/><path d="m301.34 2841.16c29.9 0 54.13 24.24 54.13 54.13s-24.24 54.13-54.13 54.13c-29.9 0-54.13-24.24-54.13-54.13s24.24-54.13 54.13-54.13zm-42.29 54.13c0 23.36 18.94 42.29 42.29 42.29 23.36 0 42.29-18.94 42.29-42.29 0-23.36-18.94-42.29-42.29-42.29s-42.29 18.94-42.29 42.29z"/><path d="m355.47 3295.37c0 41.63-33.74 75.37-75.37 75.37s-75.37-33.74-75.37-75.37 33.74-75.37 75.37-75.37 75.37 33.74 75.37 75.37zm-75.37-58.88c-32.52 0-58.88 26.36-58.88 58.88s26.36 58.88 58.88 58.88 58.88-26.36 58.88-58.88-26.36-58.88-58.88-58.88z"/><path d="m269.82 3544.32c0 13.45-10.91 24.36-24.36 24.36s-24.36-10.91-24.36-24.36 10.91-24.36 24.36-24.36 24.36 10.91 24.36 24.36zm-24.36-19.03c-10.51 0-19.03 8.52-19.03 19.03s8.52 19.03 19.03 19.03 19.03-8.52 19.03-19.03-8.52-19.03-19.03-19.03z"/><path d="m121.27 3428.3c0 29.9-24.24 54.13-54.13 54.13s-54.13-24.24-54.13-54.13 24.24-54.13 54.13-54.13 54.13 24.24 54.13 54.13zm-54.13-42.29c-23.36 0-42.29 18.94-42.29 42.29 0 23.36 18.94 42.29 42.29 42.29s42.29-18.94 42.29-42.29c0-23.36-18.94-42.29-42.29-42.29z"/><path d="m88.37 1397c41.63 0 75.37 33.74 75.37 75.37s-33.74 75.37-75.37 75.37-75.37-33.74-75.37-75.37 33.74-75.37 75.37-75.37zm-58.88 75.37c0 32.52 26.36 58.88 58.88 58.88s58.88-26.36 58.88-58.88-26.36-58.88-58.88-58.88-58.88 26.36-58.88 58.88z"/><path d="m123.01 1696.96c13.45 0 24.36 10.91 24.36 24.36s-10.91 24.36-24.36 24.36-24.36-10.91-24.36-24.36 10.91-24.36 24.36-24.36zm-19.03 24.36c0 10.51 8.52 19.03 19.03 19.03s19.03-8.52 19.03-19.03-8.52-19.03-19.03-19.03-19.03 8.52-19.03 19.03z"/><path d="m301.34 1551.16c29.9 0 54.13 24.24 54.13 54.13 0 29.9-24.24 54.13-54.13 54.13-29.9 0-54.13-24.24-54.13-54.13 0-29.9 24.24-54.13 54.13-54.13zm-42.29 54.13c0 23.36 18.94 42.29 42.29 42.29 23.36 0 42.29-18.94 42.29-42.29 0-23.36-18.94-42.29-42.29-42.29s-42.29 18.94-42.29 42.29z"/></g></svg>