<svg viewBox="0 0 1360 3329.5" xmlns="http://www.w3.org/2000/svg"><g fill="#f37c41"><path d="m1176.5 320.5c0 49.71-40.29 90-90 90s-90-40.29-90-90 40.29-90 90-90 90 40.29 90 90zm-90-70.31c-38.83 0-70.31 31.48-70.31 70.31s31.48 70.31 70.31 70.31 70.31-31.48 70.31-70.31-31.48-70.31-70.31-70.31z" opacity=".15"/><path d="m1155.5 1859.5c0 49.71-40.29 90-90 90s-90-40.29-90-90 40.29-90 90-90 90 40.29 90 90zm-90-70.31c-38.83 0-70.31 31.48-70.31 70.31s31.48 70.31 70.31 70.31 70.31-31.48 70.31-70.31-31.48-70.31-70.31-70.31z" opacity=".15"/><path d="m202.5 2284.5c0 49.71-40.29 90-90 90s-90-40.29-90-90 40.29-90 90-90 90 40.29 90 90zm-90-70.31c-38.83 0-70.31 31.48-70.31 70.31s31.48 70.31 70.31 70.31 70.31-31.48 70.31-70.31-31.48-70.31-70.31-70.31z" opacity=".15"/><path d="m211.5 3239.5c0 49.71-40.29 90-90 90s-90-40.29-90-90 40.29-90 90-90 90 40.29 90 90zm-90-70.31c-38.83 0-70.31 31.48-70.31 70.31s31.48 70.31 70.31 70.31 70.31-31.48 70.31-70.31-31.48-70.31-70.31-70.31z" opacity=".15"/><path d="m165.5 391.5c0 24.85-20.15 45-45 45s-45-20.15-45-45 20.15-45 45-45 45 20.15 45 45zm-45-35.16c-19.42 0-35.16 15.74-35.16 35.16s15.74 35.16 35.16 35.16 35.16-15.74 35.16-35.16-15.74-35.16-35.16-35.16z" opacity=".15"/><path d="m362 135c0 74.56-60.44 135-135 135s-135-60.44-135-135 60.44-135 135-135 135 60.44 135 135zm-135-105.47c-58.25 0-105.47 47.22-105.47 105.47s47.22 105.47 105.47 105.47 105.47-47.22 105.47-105.47-47.22-105.47-105.47-105.47z" opacity=".15"/><path d="m45 1427.5c-24.85 0-45-20.15-45-45s20.15-45 45-45 45 20.15 45 45-20.15 45-45 45zm35.16-45c0-19.42-15.74-35.16-35.16-35.16s-35.16 15.74-35.16 35.16 15.74 35.16 35.16 35.16 35.16-15.74 35.16-35.16z" opacity=".15"/><path d="m166.5 1805c-74.56 0-135-60.44-135-135s60.44-135 135-135 135 60.44 135 135-60.44 135-135 135zm105.47-135c0-58.25-47.22-105.47-105.47-105.47s-105.47 47.22-105.47 105.47 47.22 105.47 105.47 105.47 105.47-47.22 105.47-105.47z" opacity=".15"/><path d="m1360 995c0 74.56-60.44 135-135 135s-135-60.44-135-135 60.44-135 135-135 135 60.44 135 135zm-135-105.47c-58.25 0-105.47 47.22-105.47 105.47s47.22 105.47 105.47 105.47 105.47-47.22 105.47-105.47-47.22-105.47-105.47-105.47z" opacity=".15"/><path d="m919.25 2731.5c0 35.35-28.65 64-64 64s-64-28.65-64-64 28.65-64 64-64 64 28.65 64 64zm-64-50c-27.61 0-50 22.39-50 50s22.39 50 50 50 50-22.39 50-50-22.39-50-50-50z" opacity=".15"/><path d="m1236 2574c0 74.56-60.44 135-135 135s-135-60.44-135-135 60.44-135 135-135 135 60.44 135 135zm-135-105.47c-58.25 0-105.47 47.22-105.47 105.47s47.22 105.47 105.47 105.47 105.47-47.22 105.47-105.47-47.22-105.47-105.47-105.47z" opacity=".15"/></g></svg>