<?xml version="1.0" standalone="no"?>
<!DOCTYPE svg PUBLIC "-//W3C//DTD SVG 20010904//EN"
 "http://www.w3.org/TR/2001/REC-SVG-20010904/DTD/svg10.dtd">
<svg version="1.0" xmlns="http://www.w3.org/2000/svg"
 width="596.000000pt" height="160.000000pt" viewBox="0 0 596.000000 160.000000"
 preserveAspectRatio="xMidYMid meet">

<g transform="translate(0.000000,160.000000) scale(0.100000,-0.100000)"
fill="#000000" stroke="none">
<path d="M3244 1191 c-21 -20 -50 -44 -63 -53 -27 -19 -20 -44 9 -28 10 5 21
10 24 10 3 0 6 -38 6 -84 0 -69 3 -85 17 -90 9 -4 21 -1 27 5 8 8 8 13 -1 16
-7 3 -13 16 -13 29 0 32 27 31 42 -2 19 -41 98 -73 98 -39 0 8 -5 15 -11 15
-7 0 -9 10 -5 25 7 27 -10 35 -31 14 -6 -6 -17 -8 -24 -4 -8 6 -4 12 14 22 34
18 44 56 23 88 -9 14 -23 25 -30 25 -7 0 -19 7 -26 15 -12 14 -15 13 -32 -5
-10 -11 -22 -20 -26 -20 -3 0 5 12 20 26 l26 27 40 -31 c50 -40 92 -57 92 -38
0 7 -31 36 -68 63 l-69 50 -39 -36z m76 -85 c0 -2 -16 -6 -35 -8 -19 -2 -35 0
-35 4 0 4 16 8 35 8 19 0 35 -2 35 -4z m0 -46 c-8 -5 -28 -9 -45 -9 -29 1 -29
1 -5 9 14 4 34 8 45 9 16 1 17 -1 5 -9z"/>
<path d="M3700 1200 c0 -34 -25 -41 -45 -13 -12 16 -40 9 -30 -8 4 -5 0 -9 -9
-9 -18 0 -32 -58 -18 -72 14 -14 32 -1 32 23 0 17 8 19 86 19 78 0 86 -2 91
-20 7 -28 28 -19 28 11 0 15 -8 28 -23 34 -12 5 -20 15 -18 22 8 20 -14 26
-33 9 -24 -22 -31 -20 -31 9 0 16 -6 25 -15 25 -10 0 -15 -10 -15 -30z"/>
<path d="M2845 1201 c-3 -11 -16 -21 -28 -23 -29 -4 -36 -38 -8 -38 27 0 27
-26 1 -40 -24 -13 -26 -35 -5 -44 9 -3 15 -18 15 -35 0 -35 31 -61 72 -61 35
0 84 41 75 64 -6 15 -10 15 -37 -6 -24 -17 -35 -20 -48 -12 -31 20 -25 40 15
50 48 11 51 38 6 42 -25 2 -33 8 -33 23 0 13 7 19 24 19 35 0 56 10 56 26 0 9
-12 14 -35 14 -28 0 -35 4 -35 20 0 26 -27 26 -35 1z"/>
<path d="M2395 1198 c-2 -7 -6 -40 -9 -73 -2 -33 -7 -74 -11 -91 -10 -45 21
-64 102 -64 56 0 63 2 63 19 0 17 -5 19 -32 15 -39 -7 -91 11 -86 29 5 12 41
38 99 70 29 16 31 20 17 33 -14 14 -19 14 -53 0 -20 -9 -41 -13 -46 -10 -5 3
-6 23 -3 45 6 35 4 39 -15 39 -12 0 -24 -6 -26 -12z"/>
<path d="M2564 1194 c3 -9 6 -18 6 -20 0 -2 7 -4 16 -4 11 0 14 5 10 16 -3 9
-6 18 -6 20 0 2 -7 4 -16 4 -11 0 -14 -5 -10 -16z"/>
<path d="M1988 1193 c-32 -8 -20 -32 20 -39 20 -3 47 -15 59 -26 25 -23 43
-17 43 16 0 16 -8 27 -27 34 -38 14 -75 20 -95 15z"/>
<path d="M2532 1184 c1 -9 9 -19 16 -22 9 -3 13 2 10 14 -1 9 -9 19 -16 22 -9
3 -13 -2 -10 -14z"/>
<path d="M3672 1114 c-25 -17 -23 -49 6 -71 14 -12 13 -13 -6 -13 -13 0 -22
-6 -22 -15 0 -8 9 -15 20 -15 11 0 20 -7 20 -15 0 -9 -9 -15 -25 -15 -16 0
-25 -6 -25 -15 0 -11 13 -15 54 -15 30 0 61 3 70 6 26 10 18 24 -14 24 -20 0
-30 5 -30 15 0 9 9 15 25 15 36 0 33 30 -2 31 -27 0 -27 1 -6 11 30 15 36 36
18 64 -18 28 -51 31 -83 8z m58 -23 c0 -6 -5 -13 -10 -16 -15 -9 -43 3 -35 15
8 13 45 13 45 1z"/>
<path d="M4053 1108 c2 -7 10 -13 17 -13 7 0 15 6 18 13 2 7 -5 12 -18 12 -13
0 -20 -5 -17 -12z"/>
<path d="M4470 1105 c0 -10 7 -15 18 -13 21 4 19 22 -2 26 -10 2 -16 -3 -16
-13z"/>
<path d="M4680 1095 c0 -8 -9 -15 -20 -15 -11 0 -20 -4 -20 -10 0 -5 7 -10 15
-10 9 0 18 -12 22 -30 3 -16 9 -30 14 -30 5 0 9 14 9 30 0 20 5 30 15 30 8 0
15 5 15 10 0 6 -7 10 -15 10 -8 0 -15 7 -15 15 0 8 -4 15 -10 15 -5 0 -10 -7
-10 -15z"/>
<path d="M5136 1095 c-3 -8 -12 -15 -21 -15 -8 0 -15 -4 -15 -10 0 -5 6 -10
14 -10 8 0 16 -12 18 -27 4 -39 28 -42 28 -4 0 21 5 31 15 31 8 0 15 5 15 10
0 6 -7 10 -15 10 -8 0 -15 7 -15 15 0 8 -4 15 -9 15 -5 0 -11 -7 -15 -15z"/>
<path d="M4870 1080 c0 -5 10 -10 23 -11 l22 0 -23 -10 c-17 -6 -22 -15 -20
-31 2 -19 10 -24 46 -26 42 -3 42 -3 42 30 0 19 -5 39 -12 46 -14 14 -78 16
-78 2z m60 -45 c0 -8 -9 -15 -20 -15 -22 0 -27 15 -7 23 21 9 27 7 27 -8z"/>
<path d="M5330 1080 c0 -5 10 -10 23 -11 l22 0 -23 -10 c-17 -6 -22 -15 -20
-31 2 -19 10 -24 46 -26 39 -3 42 -2 42 23 0 45 -17 65 -55 65 -19 0 -35 -4
-35 -10z m60 -45 c0 -8 -9 -15 -20 -15 -22 0 -27 15 -7 23 21 9 27 7 27 -8z"/>
<path d="M4060 1040 c0 -22 5 -40 10 -40 6 0 10 18 10 40 0 22 -4 40 -10 40
-5 0 -10 -18 -10 -40z"/>
<path d="M4220 1044 c0 -40 17 -55 22 -17 4 39 28 42 28 4 0 -17 5 -31 10 -31
6 0 10 14 10 31 0 20 4 29 13 26 6 -2 12 -16 12 -30 -1 -15 3 -27 7 -27 14 0
21 28 14 55 -6 23 -11 25 -61 24 l-55 -2 0 -33z"/>
<path d="M4470 1040 c0 -29 4 -40 15 -40 11 0 15 11 15 40 0 29 -4 40 -15 40
-11 0 -15 -11 -15 -40z"/>
<path d="M1965 1012 c-3 -3 2 -14 12 -24 11 -12 30 -18 58 -18 43 0 86 22 72
37 -9 9 -134 13 -142 5z"/>
<path d="M4464 844 c-27 -36 -59 -80 -72 -97 -13 -18 -50 -59 -83 -93 -60 -60
-60 -61 -42 -83 23 -28 54 -22 102 19 18 17 34 30 35 30 0 0 1 -26 0 -58 0
-31 3 -77 7 -102 4 -25 13 -85 20 -135 11 -75 17 -95 40 -117 31 -32 57 -35
99 -13 34 18 36 23 15 52 -10 14 -22 19 -35 16 -11 -3 -20 -1 -21 3 0 5 -3 33
-5 62 l-4 52 35 0 c27 0 37 -6 49 -27 30 -58 80 -94 152 -109 72 -15 134 -10
134 11 0 34 -13 45 -50 45 -47 0 -55 10 -31 37 10 10 20 35 22 54 4 34 4 34
-36 34 -24 0 -40 -5 -40 -12 0 -7 -9 -19 -20 -28 -11 -9 -14 -13 -6 -9 9 5 12
3 7 -4 -5 -9 -13 -9 -26 -2 -26 14 -34 30 -16 30 8 0 20 8 25 18 6 9 11 13 11
8 0 -5 11 1 25 14 17 16 23 30 19 43 -4 13 -2 17 5 13 15 -10 14 59 -2 104 -6
20 -20 48 -30 63 -9 15 -13 27 -7 27 5 0 10 -4 10 -10 0 -5 7 -7 15 -4 8 4 15
2 15 -4 0 -9 80 -42 102 -42 4 0 14 14 23 30 9 17 11 30 5 30 -5 0 -9 5 -8 11
2 5 -19 19 -47 29 -27 11 -59 24 -69 31 -10 6 -56 30 -101 54 -45 24 -99 55
-120 69 -21 14 -41 26 -45 26 -3 0 -29 -30 -56 -66z m186 -106 l65 -38 -38 0
c-28 0 -49 9 -77 31 -37 30 -39 30 -65 13 -19 -12 -25 -24 -23 -43 3 -22 -1
-27 -24 -29 -27 -3 -36 7 -20 22 4 4 7 11 8 14 0 4 13 28 30 54 29 46 29 46
54 30 14 -9 54 -33 90 -54z m29 -132 c15 -18 3 -46 -20 -46 -25 0 -35 26 -19
45 15 19 24 19 39 1z m-149 -36 c0 -24 -26 -38 -42 -22 -16 16 -2 42 22 42 13
0 20 -7 20 -20z m149 -74 c-14 -30 -49 -46 -97 -46 -41 0 -59 8 -64 29 -2 11
19 19 77 31 44 9 83 15 87 13 4 -2 2 -14 -3 -27z"/>
<path d="M3200 810 c-14 -26 -70 -240 -63 -240 3 0 0 -7 -7 -15 -14 -17 -8
-195 9 -239 10 -26 15 -28 47 -23 20 4 38 8 41 10 2 3 6 45 9 93 5 107 9 138
23 229 23 137 25 186 10 196 -24 15 -58 10 -69 -11z"/>
<path d="M3465 783 c-79 -6 -106 -14 -98 -26 4 -7 7 -25 8 -42 l0 -30 89 -8
c49 -4 98 -14 110 -22 28 -20 46 -19 79 8 l27 22 -19 31 c-21 35 -94 75 -132
72 -13 -1 -42 -3 -64 -5z"/>
<path d="M1944 753 c-13 -14 -18 -55 -16 -153 0 -25 -5 -48 -11 -52 -9 -5 -9
-8 -1 -8 8 0 10 -21 7 -65 -3 -43 0 -65 7 -65 6 0 8 -5 5 -11 -8 -13 31 -123
57 -161 l19 -27 32 18 c35 19 46 55 28 90 -10 17 -24 124 -47 346 -3 28 -7 60
-9 71 -6 27 -50 37 -71 17z"/>
<path d="M2181 740 c-49 -16 -70 -32 -71 -52 0 -5 4 -8 10 -8 5 0 7 -6 5 -12
-12 -32 9 -38 95 -30 52 5 98 4 122 -2 35 -9 41 -8 65 16 25 26 26 28 9 52
-36 55 -135 70 -235 36z"/>
<path d="M4978 704 c-14 -41 -18 -95 -9 -147 0 -5 13 -7 29 -5 24 3 28 9 41
61 12 53 15 57 43 57 17 0 27 -4 23 -10 -3 -5 0 -7 8 -4 27 10 27 -13 1 -31
-28 -18 -59 -80 -48 -97 4 -6 8 -27 9 -46 2 -34 41 -82 76 -94 24 -8 -1 -27
-29 -22 -15 3 -39 1 -54 -5 -22 -8 -28 -17 -28 -39 0 -26 4 -30 42 -38 30 -6
44 -15 46 -28 4 -17 -1 -19 -57 -13 -66 6 -84 -4 -75 -40 5 -17 21 -24 91 -38
47 -9 115 -20 152 -24 36 -4 73 -10 81 -12 9 -2 16 4 18 19 2 12 7 20 12 17 4
-3 7 3 6 12 -2 10 -7 17 -12 16 -5 0 -18 4 -29 10 -11 6 -36 11 -55 11 -25 1
-36 6 -38 19 -3 14 4 17 35 18 89 2 88 2 86 32 -1 15 3 27 10 27 30 0 -15 22
-59 28 -35 5 -50 12 -52 25 -3 14 4 17 36 17 21 0 52 5 69 10 53 19 81 123 48
180 -8 14 -14 28 -15 31 0 11 68 -8 95 -25 24 -16 24 -18 9 -41 -15 -23 -15
-27 0 -50 21 -32 27 -31 57 3 45 49 53 75 35 111 -21 39 -52 60 -135 88 -64
22 -66 22 -82 4 -15 -18 -19 -18 -83 -4 -54 12 -67 19 -63 32 2 10 -2 17 -12
17 -9 1 -59 5 -111 9 l-95 7 -17 -48z m217 -129 c0 -30 -39 -27 -43 3 -3 20 0
23 20 20 15 -2 23 -10 23 -23z m142 -16 c16 -16 5 -39 -17 -39 -23 0 -34 16
-26 35 6 18 28 19 43 4z m-153 -58 c26 -29 72 -36 101 -17 30 20 45 20 45 1 0
-23 -58 -48 -98 -41 -37 6 -82 40 -82 63 0 19 14 16 34 -6z"/>
<path d="M2625 694 c-9 -10 -14 -26 -11 -42 2 -15 5 -30 5 -34 1 -4 18 -10 39
-13 90 -16 194 -55 188 -72 -6 -14 39 -53 60 -53 23 0 53 37 60 75 8 44 -10
67 -81 102 -99 49 -229 68 -260 37z"/>
<path d="M3883 700 c-48 -11 -65 -29 -58 -59 11 -43 21 -48 103 -49 42 0 90
-5 106 -11 16 -7 31 -9 34 -6 3 3 10 -5 16 -17 6 -12 24 -26 40 -31 25 -8 31
-6 47 14 20 27 31 72 22 94 -7 19 -65 49 -113 60 -51 10 -160 13 -197 5z"/>
<path d="M3380 430 c-20 -15 -23 -21 -12 -31 6 -7 12 -21 12 -31 0 -10 4 -17
9 -15 5 1 16 -6 24 -17 16 -22 127 -33 192 -19 37 8 40 11 43 47 2 21 -1 43
-6 48 -4 4 -43 10 -85 13 -42 2 -85 9 -96 14 -29 16 -53 13 -81 -9z"/>
<path d="M2199 392 l-31 -28 18 -30 c11 -18 25 -29 33 -26 8 3 11 0 7 -6 -19
-30 124 -24 199 9 l44 19 -13 43 c-9 32 -17 41 -32 40 -114 -13 -153 -14 -172
-4 -18 10 -26 7 -53 -17z"/>
<path d="M2607 349 c-37 -29 -34 -49 15 -89 70 -59 181 -70 281 -27 46 20 54
39 32 73 -16 24 -20 25 -63 18 -26 -4 -56 -7 -67 -7 -65 4 -96 8 -85 11 7 3 0
10 -17 17 -60 25 -69 26 -96 4z"/>
<path d="M4106 348 c-50 -26 -112 -30 -179 -12 l-52 14 -27 -30 c-35 -38 -28
-54 33 -85 90 -46 208 -28 289 43 37 34 36 51 -6 78 -16 10 -25 9 -58 -8z"/>
</g>
</svg>
