<svg viewBox="0 0 32 31.3" xmlns="http://www.w3.org/2000/svg"><g fill="#f07780"><circle cx="9.46" cy="15.58" r="3.2"/><circle cx="22.68" cy="15.58" r="3.2"/><circle cx="16" cy="15.58" r="1.81"/><path d="m30.47 9.18c.83 0 1.53-.7 1.53-1.53s-.7-1.53-1.53-1.53h-1.95c-2.92-3.76-7.37-6.12-12.52-6.12s-9.6 2.37-12.52 6.12h-1.95c-.83-.14-1.53.56-1.53 1.53s.7 1.53 1.53 1.53c-.83 1.95-1.39 4.18-1.39 6.4 0 8.77 7.1 15.72 15.72 15.72s15.72-7.1 15.72-15.72c.28-2.23-.28-4.45-1.11-6.4zm-14.47-6.12c3.06 0 5.98 1.11 8.21 3.06h-16.28c2.09-1.95 5.01-3.06 8.07-3.06zm12.66 12.52c0 6.96-5.7 12.66-12.66 12.66s-12.66-5.7-12.66-12.66c0-2.37.7-4.59 1.81-6.4h21.7c1.11 1.95 1.81 4.03 1.81 6.4z"/></g></svg>