<svg viewBox="0 0 30 22.29" xmlns="http://www.w3.org/2000/svg"><path d="m27.28 0h-24.56c-1.5 0-2.72 1.22-2.72 2.72v16.85c0 .4.09.78.25 1.12.06.14.13.27.21.39s.18.23.27.33c.5.53 1.2.87 1.98.87h24.57c.78 0 1.48-.34 1.98-.87.1-.1.19-.21.27-.33s.15-.26.21-.39c.16-.34.25-.72.25-1.12v-16.85c0-1.5-1.22-2.72-2.72-2.72zm1.86 3.63-13.16 12.45c-.55.52-1.41.52-1.96 0l-13.16-12.45v-.91c0-1.02.83-1.86 1.86-1.86h24.57c1.02 0 1.86.83 1.86 1.86v.91zm0 15.94c0 .15-.02.3-.06.44l-7.73-7.83 7.79-7.37zm-1.86 1.86h-24.56c-.55 0-1.04-.24-1.38-.62l7.94-8.04 4.16 3.93c.44.42 1.01.62 1.57.62s1.13-.21 1.57-.62l4.16-3.93 7.94 8.04c-.34.38-.83.62-1.38.62zm-26.42-1.86v-14.76l7.79 7.37-7.73 7.83c-.04-.14-.06-.29-.06-.44z" fill="#004097"/></svg>