<svg viewBox="0 0 120 137.73" xmlns="http://www.w3.org/2000/svg"><g fill="#fff"><circle cx="44.67" cy="36.52" r="7.5"/><circle cx="75.65" cy="36.52" r="7.5"/><circle cx="60" cy="36.52" r="4.24"/><path d="m93.91 21.52c1.96 0 3.59-1.63 3.59-3.59s-1.63-3.59-3.59-3.59h-4.57c-6.84-8.8-17.27-14.34-29.34-14.34s-22.5 5.54-29.35 14.35h-4.57c-1.96-.33-3.59 1.3-3.59 3.59s1.63 3.59 3.59 3.59c-1.96 4.57-3.26 9.78-3.26 15 0 20.54 16.63 36.85 36.85 36.85s36.85-16.63 36.85-36.85c.65-5.22-.65-10.43-2.61-15zm-33.91-14.35c7.17 0 14.02 2.61 19.24 7.17h-38.15c4.89-4.57 11.74-7.17 18.91-7.17zm29.67 29.35c0 16.3-13.37 29.67-29.67 29.67s-29.67-13.37-29.67-29.67c0-5.54 1.63-10.76 4.24-15h50.87c2.61 4.57 4.24 9.46 4.24 15z"/><path d="m20.57 92.71h4.31c.25 0 .37.18.37.35 0 .18-.11.37-.37.37h-4.31v2.02c0 .79-.39 1.12-1.19 1.12-.29 0-.54-.02-.79-.07-.27-.05-.4-.23-.4-.42 0-.22.19-.45.54-.39.22.03.43.06.63.06.26 0 .38-.06.38-.4v-1.92h-4.38c-.23 0-.35-.18-.35-.37 0-.17.13-.35.35-.35h4.38v-.71c0-.24.21-.35.42-.35.09 0 .19.02.27.08.48-.23.93-.51 1.27-.8.05-.03.07-.08.07-.11 0-.05-.06-.08-.16-.08h-4.1c-.23 0-.34-.17-.34-.35 0-.17.11-.35.34-.35h4.34c.61 0 .93.29.93.63 0 .21-.11.43-.37.64-.57.46-1.19.83-1.84 1.12v.3zm3.1-4.42c.9 0 1.21.3 1.21.95v.87c0 .25-.19.39-.4.39-.19 0-.4-.14-.4-.39v-.77c0-.29-.11-.39-.53-.39h-6.89c-.41 0-.51.1-.51.39v.85c0 .25-.19.39-.4.39-.19 0-.4-.14-.4-.39v-.95c0-.65.3-.95 1.2-.95h5.03c.38-.59.7-1.19.98-1.84.08-.18.23-.26.38-.26.19 0 .39.15.39.39 0 .06-.01.14-.05.21-.23.48-.51 1.01-.83 1.51h1.22zm-5.51-.8c.03.08.06.16.06.23 0 .23-.18.38-.39.38-.15 0-.31-.08-.4-.27-.14-.29-.35-.69-.55-.96-.06-.09-.08-.17-.08-.24 0-.21.17-.33.38-.33.13 0 .27.06.38.19.23.31.43.67.61 1.01zm2.38-.19c.03.08.05.15.05.22 0 .24-.19.4-.39.4-.16 0-.32-.09-.4-.32-.11-.33-.27-.66-.46-.98-.05-.09-.07-.17-.07-.24 0-.19.17-.32.37-.32.15 0 .31.07.42.25.18.32.37.7.48.99z"/><path d="m29.39 86.4c0-.24.19-.35.38-.35s.38.11.38.35v2.23h.94c.22 0 .32.17.32.34 0 .18-.1.35-.32.35h-.94v1.33c.51.35.96.77 1.27 1.19.09.11.13.23.13.33 0 .21-.17.37-.35.37-.11 0-.24-.06-.34-.21-.17-.27-.43-.57-.7-.82v4.72c0 .23-.18.34-.38.34-.18 0-.38-.11-.38-.34v-2.74l.06-2.34c-.29.87-.7 1.76-1.15 2.47-.1.15-.23.22-.35.22-.17 0-.32-.14-.32-.33 0-.08.02-.17.09-.27.66-1.01 1.22-2.41 1.57-3.9h-1.1c-.21 0-.32-.17-.32-.35 0-.17.11-.34.32-.34h1.21v-2.23zm6.18 4.83c.07-.22.24-.32.41-.32.19 0 .38.14.38.37 0 .05-.01.09-.02.15-.26.87-.67 1.65-1.19 2.32.72.74 1.63 1.35 2.72 1.82.23.1.32.26.32.41 0 .21-.17.4-.4.4-.07 0-.14-.01-.21-.05-1.17-.49-2.15-1.15-2.93-1.99-.88.94-1.94 1.65-3.02 2.08-.07.02-.13.05-.18.05-.23 0-.38-.19-.38-.39 0-.14.08-.27.26-.35 1.05-.45 2.03-1.07 2.82-1.95-.51-.66-.91-1.41-1.19-2.23-.02-.06-.02-.1-.02-.16 0-.22.17-.35.35-.35.15 0 .31.09.38.3.23.67.55 1.29.96 1.84.39-.56.71-1.2.93-1.93zm-2.14-2.26c.22 0 .42.16.42.38 0 .08-.02.16-.08.24-.4.59-.87 1.11-1.43 1.57-.1.09-.22.13-.31.13-.21 0-.38-.17-.38-.37 0-.13.06-.26.21-.38.45-.37.89-.86 1.22-1.37.09-.14.22-.19.34-.19zm4.41-1.21c.22 0 .32.17.32.35 0 .17-.1.35-.32.35h-5.77c-.22 0-.32-.18-.32-.35 0-.18.1-.35.32-.35h2.21v-1.3c0-.25.21-.37.41-.37s.41.11.41.37v1.3zm-.25 2.64c.11.13.16.26.16.38 0 .24-.19.42-.4.42-.13 0-.26-.06-.37-.21-.39-.53-.95-1.07-1.34-1.37-.11-.09-.16-.19-.16-.3 0-.18.15-.35.35-.35.09 0 .21.03.31.11.41.29.99.79 1.44 1.31z"/><path d="m42.33 90.03c.1.11.15.24.15.35 0 .23-.18.42-.4.42-.11 0-.23-.05-.33-.16-.29-.33-.71-.67-.95-.85-.14-.1-.19-.23-.19-.34 0-.21.18-.38.41-.38.09 0 .18.02.27.08.31.21.75.57 1.04.87zm.43 2.23c.21 0 .4.15.4.4 0 .06-.01.11-.03.18-.31 1.02-.9 2.29-1.42 3.09-.11.18-.27.25-.42.25-.21 0-.4-.16-.4-.38 0-.09.03-.19.1-.3.51-.74 1.05-1.92 1.36-2.9.08-.24.25-.34.41-.34zm.35-4.93c.09.11.14.24.14.35 0 .24-.19.42-.41.42-.11 0-.24-.05-.35-.18-.26-.31-.62-.65-.86-.85-.14-.1-.19-.23-.19-.34 0-.21.21-.39.42-.39.08 0 .16.02.24.08.32.22.77.62 1.02.9zm7.49 3.79c.23 0 .33.17.33.35 0 .17-.1.35-.33.35h-3.61c-.37 1.12-.82 2.21-1.39 3.23 1.07-.1 2.15-.27 3.2-.49-.27-.31-.55-.59-.83-.85-.1-.09-.14-.19-.14-.29 0-.19.16-.35.37-.35.1 0 .22.03.32.13.64.54 1.39 1.35 1.9 2.1.08.13.13.24.13.35 0 .23-.18.4-.39.4-.14 0-.29-.08-.4-.25-.15-.23-.31-.45-.47-.66-1.65.41-3.45.73-5.29.89-.32.03-.49-.19-.49-.41 0-.19.14-.39.41-.41s.54-.05.8-.07c.57-1.06 1.05-2.17 1.42-3.33h-2.4c-.22 0-.32-.18-.32-.35 0-.18.1-.35.32-.35h2.91v-2.06h-2.05c-.22 0-.33-.18-.33-.35 0-.18.11-.35.33-.35h2.05v-1.89c0-.25.21-.37.41-.37s.41.11.41.37v1.89h2.41c.23 0 .33.17.33.35 0 .17-.1.35-.33.35h-2.41v2.06h3.14z"/><path d="m56.89 93.63c-.75 1.01-1.86 1.94-2.98 2.53-.08.05-.16.06-.24.06-.23 0-.39-.18-.39-.38 0-.14.08-.29.27-.39 1.02-.54 1.95-1.36 2.66-2.32 1.07-1.45 1.62-3.41 1.62-6.27 0-.29.23-.42.45-.42.23 0 .45.14.45.43 0 .39-.01.69-.02.98.49 3.47 2.06 5.86 4.53 7.31.23.14.32.31.32.48 0 .23-.18.43-.45.43-.1 0-.22-.03-.33-.1-2.26-1.34-3.76-3.51-4.37-6.26-.17 1.51-.66 2.78-1.52 3.92z"/><path d="m79.76 95.24c.23 0 .34.18.34.37s-.11.37-.34.37h-9.23c-.23 0-.34-.18-.34-.37s.11-.37.34-.37h4.09v-2.26h-2.7c-.22 0-.33-.18-.33-.37 0-.17.11-.35.33-.35h2.7v-1.73h-2.87c-.23 0-.34-.18-.34-.37 0-.17.11-.35.34-.35h6.79c.23 0 .34.18.34.35 0 .18-.11.37-.34.37h-3.07v1.73h2.9c.23 0 .33.18.33.35 0 .18-.1.37-.33.37h-2.9v2.26h4.3zm-1.01-7.82c.87 0 1.19.39 1.19.96v.9c0 .24-.21.35-.4.35-.21 0-.41-.11-.41-.35v-.77c0-.26-.1-.4-.54-.4h-6.94c-.43 0-.54.14-.54.38v.9c0 .24-.21.35-.4.35-.21 0-.41-.11-.41-.35v-1.02c0-.57.32-.96 1.19-.96h3.19v-1.02c0-.24.21-.37.41-.37.19 0 .4.13.4.37v1.02h3.26zm-.89 6.84c.09.11.14.22.14.32 0 .21-.18.37-.39.37-.11 0-.23-.05-.33-.17-.26-.32-.56-.62-.82-.83-.1-.09-.15-.19-.15-.29 0-.19.17-.35.38-.35.09 0 .18.03.27.1.29.22.69.59.9.86z"/><path d="m88.07 92.71h4.31c.25 0 .37.18.37.35 0 .18-.11.37-.37.37h-4.31v2.02c0 .79-.39 1.12-1.19 1.12-.29 0-.54-.02-.79-.07-.27-.05-.4-.23-.4-.42 0-.22.19-.45.54-.39.22.03.43.06.63.06.26 0 .38-.06.38-.4v-1.92h-4.38c-.23 0-.35-.18-.35-.37 0-.17.13-.35.35-.35h4.38v-.71c0-.24.21-.35.42-.35.09 0 .19.02.27.08.48-.23.93-.51 1.27-.8.05-.03.07-.08.07-.11 0-.05-.06-.08-.16-.08h-4.1c-.23 0-.34-.17-.34-.35 0-.17.11-.35.34-.35h4.34c.61 0 .93.29.93.63 0 .21-.11.43-.37.64-.57.46-1.19.83-1.84 1.12v.3zm3.1-4.42c.9 0 1.21.3 1.21.95v.87c0 .25-.19.39-.4.39-.19 0-.4-.14-.4-.39v-.77c0-.29-.11-.39-.53-.39h-6.89c-.41 0-.51.1-.51.39v.85c0 .25-.19.39-.4.39-.19 0-.4-.14-.4-.39v-.95c0-.65.3-.95 1.2-.95h5.03c.38-.59.7-1.19.98-1.84.08-.18.23-.26.38-.26.19 0 .39.15.39.39 0 .06-.01.14-.05.21-.23.48-.51 1.01-.83 1.51h1.22zm-5.51-.8c.03.08.06.16.06.23 0 .23-.18.38-.39.38-.15 0-.31-.08-.4-.27-.14-.29-.35-.69-.55-.96-.06-.09-.08-.17-.08-.24 0-.21.17-.33.38-.33.13 0 .27.06.38.19.23.31.43.67.61 1.01zm2.38-.19c.03.08.05.15.05.22 0 .24-.19.4-.39.4-.16 0-.32-.09-.4-.32-.11-.33-.27-.66-.46-.98-.05-.09-.07-.17-.07-.24 0-.19.17-.32.37-.32.15 0 .31.07.42.25.18.32.37.7.48.99z"/><path d="m97.13 96.17c-1.01-.02-1.6-.31-1.62-1.41v-6.81c0-.96.47-1.41 1.62-1.41h6.25c1.17 0 1.62.45 1.62 1.41v6.81c0 .96-.46 1.41-1.62 1.41zm6.09-.73c.63-.01.93-.11.94-.8v-6.57c0-.59-.22-.79-.94-.79h-5.93c-.72 0-.94.19-.94.79v6.57c0 .61.22.8.94.8zm.18-6.02c.23 0 .33.16.33.33 0 .16-.1.33-.33.33h-6.27c-.22 0-.33-.17-.33-.33 0-.17.11-.33.33-.33h2.72v-.56h-1.92c-.22 0-.33-.16-.33-.32s.11-.32.33-.32h1.92v-.41c0-.24.19-.35.38-.35s.38.11.38.35v.41h2.01c.23 0 .33.16.33.32s-.1.32-.33.32h-2.01v.56h2.8zm-4.54 3.3c-.58-.01-1.01-.11-1.02-.79v-.53c0-.54.26-.81 1.02-.81h2.85c.75 0 1.02.27 1.02.81v.53c0 .54-.26.79-1.02.79h-1.11v.06c.3.24.61.45.94.63.57-.29 1.02-.59 1.42-.94.1-.09.22-.13.31-.13.21 0 .35.15.35.33 0 .1-.05.22-.17.32-.33.27-.75.53-1.2.75.39.16.79.29 1.18.38.25.06.35.23.35.39 0 .18-.14.37-.34.37-.05 0-.08-.01-.13-.02-.98-.25-1.9-.7-2.71-1.3v1.3c0 .23-.18.35-.38.35-.18 0-.38-.13-.38-.35v-.81l.02-.86c-.75.66-1.65 1.21-2.54 1.59-.07.02-.13.03-.18.03-.19 0-.33-.15-.33-.32 0-.13.08-.26.26-.34.83-.35 1.61-.83 2.3-1.43zm2.71-.62c.18 0 .4-.01.4-.24v-.39c0-.21-.13-.24-.4-.24h-2.57c-.27 0-.4.03-.4.24v.39c0 .21.13.24.4.24z"/><path d="m14.85 137.7h-.57l-1.71-2.59v2.59h-.57v-3.48h.57l1.71 2.59v-2.59h.57z"/><path d="m19.15 136.99h-1.46l-.25.71h-.59l1.25-3.48h.66l1.25 3.48h-.6l-.25-.71zm-.16-.47-.56-1.61-.57 1.61z"/><path d="m23.92 137.7-1.34-1.55v1.55h-.57v-3.48h.57v1.59l1.35-1.59h.72l-1.51 1.74 1.53 1.74h-.74z"/><path d="m28.83 136.99h-1.46l-.25.71h-.59l1.25-3.48h.66l1.25 3.48h-.6l-.25-.71zm-.16-.47-.56-1.61-.57 1.61z"/><path d="m34.09 135.22c-.09-.17-.21-.3-.37-.39s-.34-.13-.55-.13c-.23 0-.44.05-.61.16s-.32.25-.42.44-.15.41-.15.66.05.47.15.66.24.34.42.44.38.15.61.15c.31 0 .56-.09.76-.26.19-.17.31-.41.35-.7h-1.31v-.46h1.91v.45c-.04.27-.13.52-.29.74-.16.23-.36.41-.6.54-.25.14-.52.2-.83.2-.33 0-.62-.08-.89-.23s-.48-.36-.64-.63-.24-.57-.24-.92.08-.64.24-.91.37-.48.64-.63.57-.23.89-.23c.37 0 .7.09.99.27s.5.44.63.77h-.69z"/><path d="m38.88 136.99h-1.46l-.25.71h-.59l1.25-3.48h.66l1.25 3.48h-.6l-.25-.71zm-.16-.47-.56-1.61-.57 1.61z"/><path d="m46.08 134.22-1.03 3.48h-.65l-.73-2.63-.78 2.63h-.64s-.99-3.48-.99-3.48h.6l.72 2.83.78-2.83h.64l.72 2.82.73-2.82h.61z"/><path d="m49.9 136.99h-1.46l-.25.71h-.59l1.25-3.48h.66l1.25 3.48h-.6l-.25-.71zm-.16-.47-.56-1.61-.57 1.61z"/><path d="m57.5 137.7-1.34-1.55v1.55h-.57v-3.48h.57v1.59l1.35-1.59h.72l-1.51 1.74 1.53 1.74h-.74z"/><path d="m60.8 134.22v3.48h-.57v-3.48z"/><path d="m65.96 137.7h-.57l-1.71-2.59v2.59h-.57v-3.48h.57l1.71 2.59v-2.59h.57z"/><path d="m70.38 134.43c.28.14.49.34.65.61.15.27.23.57.23.93s-.08.66-.23.92-.37.46-.65.6-.6.21-.97.21h-1.13v-3.48h1.13c.37 0 .69.07.97.21zm-.04 2.47c.22-.22.32-.53.32-.93s-.11-.72-.32-.94c-.22-.23-.53-.34-.94-.34h-.56v2.54h.56c.41 0 .72-.11.94-.33z"/><path d="m73.94 134.68v1.02h1.2v.47h-1.2v1.06h1.35v.47h-1.92v-3.48h1.92v.47h-1.35z"/><path d="m79.28 137.7-.8-1.39h-.43v1.39h-.57v-3.48h1.2c.27 0 .49.05.68.14s.32.22.42.37c.09.16.14.33.14.52 0 .23-.07.43-.2.62-.13.18-.33.31-.61.38l.86 1.44h-.68zm-1.23-1.84h.63c.21 0 .37-.05.48-.16s.16-.25.16-.43-.05-.32-.16-.42-.27-.15-.49-.15h-.63v1.17z"/><path d="m84.59 135.22c-.09-.17-.21-.3-.37-.39s-.34-.13-.55-.13c-.23 0-.44.05-.61.16s-.32.25-.42.44-.15.41-.15.66.05.47.15.66.24.34.42.44.38.15.61.15c.31 0 .56-.09.76-.26.19-.17.31-.41.35-.7h-1.31v-.46h1.91v.45c-.04.27-.13.52-.29.74-.16.23-.36.41-.6.54-.25.14-.52.2-.83.2-.33 0-.62-.08-.89-.23s-.48-.36-.64-.63-.24-.57-.24-.92.08-.64.24-.91.37-.48.64-.63.57-.23.89-.23c.37 0 .7.09.99.27s.5.44.63.77h-.69z"/><path d="m89.38 136.99h-1.46l-.25.71h-.59l1.25-3.48h.66l1.25 3.48h-.6l-.25-.71zm-.16-.47-.56-1.61-.57 1.61z"/><path d="m94.03 137.7-.8-1.39h-.43v1.39h-.57v-3.48h1.2c.27 0 .49.05.68.14s.32.22.42.37c.09.16.14.33.14.52 0 .23-.07.43-.2.62-.13.18-.33.31-.61.38l.86 1.44h-.68zm-1.23-1.84h.63c.21 0 .37-.05.48-.16s.16-.25.16-.43-.05-.32-.16-.42-.27-.15-.49-.15h-.63v1.17z"/><path d="m99.02 134.22v.47h-.93v3.01h-.57v-3.01h-.93v-.47h2.42z"/><path d="m101.61 134.68v1.02h1.2v.47h-1.2v1.06h1.35v.47h-1.92v-3.48h1.92v.47h-1.35z"/><path d="m108 137.7h-.57l-1.71-2.59v2.59h-.57v-3.48h.57l1.71 2.59v-2.59h.57z"/><path d="m9.38 126.66c0 .24-.02.83-.87.83-.79 0-.87-.45-.87-.83v-4.82h-5.09c-1.82 0-2.55-.63-2.55-2.57v-4.34c0-1.92.71-2.55 2.55-2.55h5.09v-2.47c0-.22 0-.81.81-.81.61 0 .93.2.93.81v2.47h5.09c1.86 0 2.55.63 2.55 2.55v4.34c0 1.9-.67 2.57-2.55 2.57h-5.09zm-1.74-12.71h-4.78c-.79 0-1.18.36-1.18 1.17v3.99c0 .75.34 1.18 1.18 1.18h4.78zm1.74 6.34h4.78c.89 0 1.19-.47 1.19-1.18v-3.99c0-.79-.38-1.17-1.19-1.17h-4.78z"/><path d="m28.31 117.3c0 1.97-.2 6-1.62 8.69-.65 1.26-.97 1.38-1.3 1.38-.49 0-.99-.41-.99-.93 0-.3.12-.51.34-.83.51-.81 1.2-1.87 1.6-4.6.22-1.48.22-3.06.22-3.71v-7.19c0-.24 0-.85.83-.85.71 0 .93.28.93.85v7.19zm6.46 8.01c0 .26 0 .83-.81.83-.67 0-.93-.22-.93-.83v-14.61c0-.22 0-.83.81-.83.65 0 .93.2.93.83zm6.89 1.28c0 .26 0 .85-.83.85-.63 0-.93-.2-.93-.85v-16.48c0-.26.02-.83.81-.83.67 0 .95.2.95.83z"/><path d="m63.18 114.68c-.1 4.17-.79 6.97-2.35 9.38-1.14 1.78-2.94 3.44-3.61 3.44-.38 0-.83-.36-.83-.85 0-.22.08-.36.34-.57.16-.14.95-.79 1.13-.95-.14-.16-.16-.24-.4-.95-2.19.55-6.02 1.13-6.44 1.13-.65 0-.75-.65-.75-.87 0-.67.45-.73 1.05-.79.93-1.54 1.8-3.12 2.67-4.7-.71-.75-2.11-2.03-2.61-2.45-.99-.81-1.11-.95-1.11-1.3 0-.47.35-.83.69-.83.22 0 .41.16.75.41.79-1.6 1.14-2.33 1.8-3.99.59-1.46.65-1.64 1.11-1.64.39 0 .93.3.93.79 0 .69-2.39 5.39-2.65 5.84.63.55 1.24 1.14 1.82 1.78.69-1.34 1.22-2.45 1.97-4.24.14-.35.3-.69.75-.69.24 0 .87.12.87.75 0 .39-.87 2.11-1.14 2.66-.75 1.54-2.19 4.44-4.03 7.38 0 0 2.6-.32 3.83-.59-.14-.38-.43-1.03-.69-1.64-.14-.3-.24-.55-.24-.81 0-.43.41-.73.81-.73.32 0 .55.04 1.09 1.24.34.79.91 2.23 1.13 2.94 2.33-3.06 2.47-7.32 2.51-9.16h-2.43c-.22 0-.85 0-.85-.79s.65-.79.85-.79h2.43v-3.1c0-.59.28-.83.85-.83.77 0 .77.63.77.83v3.1h2.69c2.17 0 2.31.93 2.31 2.41 0 2.09-.02 8.49-.79 10.25-.69 1.56-1.97 1.58-3.79 1.58-1.18 0-1.8 0-1.8-.93 0-.83.67-.83.87-.83.22 0 1.28.02 1.52.02 1.17 0 1.7-.28 1.97-1.93.26-1.5.38-5.76.38-7.52 0-1.01 0-1.46-.89-1.46h-2.47z"/><path d="m81.3 114.16h1.48c.39 0 .77.16.77.75 0 .51-.26.75-.77.75h-1.48v.75c.65 1.3 1.5 2.47 1.9 2.88.71.79.79.89.79 1.18 0 .36-.28.79-.69.79-.32 0-.51-.22-.75-.55-.16-.24-.73-1.07-1.24-2.09v8.15c0 .22-.02.81-.77.81-.59 0-.75-.38-.75-.81v-7.98c-.55 1.56-1.14 2.6-1.54 3.28-.67 1.11-.89 1.19-1.16 1.19-.43 0-.79-.45-.79-.87 0-.3.1-.41.97-1.58.63-.83 1.84-2.9 2.45-5.15h-2.35c-.22 0-.83 0-.83-.75s.61-.75.83-.75h2.37v-2.86c-1.42.2-2.01.3-2.37.3-.61 0-.73-.43-.73-.79 0-.61.43-.67.79-.71 1.17-.12 2.63-.26 3.93-.61.24-.06 1.2-.38 1.42-.38.47 0 .67.49.67.81 0 .61-.47.73-2.13 1.09v3.16zm3.75 2.03c-.93 1.36-1.13 1.46-1.46 1.46-.45 0-.87-.47-.87-.89 0-.24.1-.38.34-.63.59-.71 1.07-1.36 1.48-2.07.99-1.72 1.28-2.61 1.9-4.5.1-.34.24-.63.69-.63.3 0 .85.16.85.65 0 .26-.16.69-.28 1.07-.18.51-.38 1.09-.55 1.5h2.57c.41-.85.49-1.07.99-2.47.12-.38.24-.67.71-.67.2 0 .87.08.87.63 0 .38-.35 1.18-.93 2.51h2.45c.49 0 .81.2.81.75 0 .73-.57.73-.83.73h-2.69v2.88h2.53c.32 0 .73.06.73.71s-.51.69-.73.69h-2.53v3.02h2.53c.4 0 .73.12.73.71 0 .65-.45.69-.73.69h-2.53v3.3h2.98c.47 0 .81.14.81.75 0 .69-.49.73-.81.73h-7.19c-1.28 0-1.84-.41-1.84-1.82zm1.58.32h2.98v-2.88h-2.35c-.49 0-.63.3-.63.65zm2.98 1.4h-2.98v3.02h2.98zm0 7.72v-3.3h-2.98v2.64c0 .32.1.65.63.65h2.35z"/><path d="m120 124.51c0 1.92-.73 2.55-2.57 2.55h-11.53c-1.84 0-2.57-.63-2.57-2.55v-12.16c0-1.9.71-2.55 2.57-2.55h11.53c1.84 0 2.57.61 2.57 2.55zm-1.64-12.18c0-.75-.34-1.14-1.15-1.14h-11.11c-.87 0-1.13.47-1.13 1.14v12.24c0 .73.32 1.15 1.13 1.15h11.11c.77 0 1.15-.36 1.15-1.15zm-5.92 2.61h4.88c.16 0 .65 0 .65.55 0 .35-.14.61-.65.61h-11.35c-.18 0-.65-.02-.65-.57 0-.43.26-.59.65-.59h4.9v-1.17h-4.03c-.14 0-.65 0-.65-.57 0-.47.35-.57.65-.57h4.03v-.45c0-.45.24-.69.75-.69.41 0 .83.1.83.69v.45h4.03c.2 0 .63.02.63.57 0 .43-.26.57-.63.57h-4.03v1.17zm-.34 9.44c0 .2 0 .75-.73.75s-.73-.53-.73-.75v-2.49c-1.4 1.24-3.77 2.63-4.36 2.63-.35 0-.69-.38-.69-.79 0-.35.2-.47.55-.63 2.57-1.07 3.69-2.05 4.44-2.7h-2.43c-.93 0-1.44-.16-1.44-1.32v-.63c0-1.13.49-1.32 1.44-1.32h7.07c.95 0 1.42.2 1.42 1.32v.63c0 1.14-.47 1.32-1.42 1.32h-3c.73.73 1.14 1.09 1.95 1.64.77-.57 1.38-1.13 1.7-1.44.22-.22.32-.3.53-.3.35 0 .67.3.67.61 0 .2-.12.36-.26.49-.4.39-.97.89-1.52 1.3.55.3 1.26.61 1.9.85.3.12.49.22.49.57 0 .22-.14.75-.65.75-.43 0-3.14-1.26-4.94-3.16v2.67zm3.1-5.78c0-.3-.14-.49-.49-.49h-6.1c-.32 0-.47.16-.47.49v.36c0 .3.12.49.47.49h6.1c.34 0 .49-.18.49-.49z"/></g></svg>